*******Scarface.1983.Collectors.Edition.Uncut.Version.avi********

Format                           : AVI
File size                        : 1.67 GiB
Duration                         : 2h 42mn
Overall bit rate                 : 1 468 Kbps

Video

Format                           : MPEG-4 Visual
Codec ID/Hint                    : XviD
Duration                         : 2h 42mn
Bit rate                         : 1 327 Kbps
Width                            : 714 pixels
Height                           : 432 pixels
Display aspect ratio             : 2.35:1
Stream size                      : 1.51 GiB (90%)
Writing library                  : XviD 1.1.2 (UTC 2006-11-01)

Audio

Format                           : MPEG Audio
Codec ID/Hint                    : MP3
Duration                         : 2h 42mn
Bit rate                         : 128 Kbps
Channel(s)                       : 2 channels
Sampling rate                    : 48.0 KHz
Stream size                      : 149 MiB (9%)
Writing library                  : LAME3.98



Text #1
Language                         : English

Text #2
Language                         : German

Text #3
Language                         : Danish

Text #4
Language                         : Finnish

Text #5
Language                         : Swedish

Text #6
Language                         : Norwegian

Text #7
Language                         : Dutch

Text #8
Language                         : Czech

Text #9
Language                         : Czech

Text #10
Language                         : Polish

Text #11
Language                         : Turkish

Text #12
Language                         : Hungarian

Text #13
Language                         : Bulgarian